G75*
%MOIN*%
%OFA0B0*%
%FSLAX24Y24*%
%IPPOS*%
%LPD*%
%AMOC8*
5,1,8,0,0,1.08239X$1,22.5*
%
%ADD10C,0.0030*%
%ADD11C,0.0050*%
D10*
X001115Y000432D02*
X001177Y000370D01*
X001424Y000370D01*
X001485Y000432D01*
X001485Y000555D01*
X001424Y000617D01*
X001177Y000617D01*
X001115Y000555D01*
X001115Y000432D01*
X001177Y000738D02*
X001424Y000738D01*
X001485Y000800D01*
X001485Y000985D01*
X001115Y000985D01*
X001115Y000800D01*
X001177Y000738D01*
X001177Y001351D02*
X001424Y001351D01*
X001485Y001413D01*
X001485Y001598D01*
X001115Y001598D01*
X001115Y001413D01*
X001177Y001351D01*
X001177Y001720D02*
X001424Y001720D01*
X001485Y001782D01*
X001485Y001967D01*
X001115Y001967D01*
X001115Y001782D01*
X001177Y001720D01*
X001238Y002088D02*
X001485Y002088D01*
X001238Y002088D02*
X001115Y002212D01*
X001238Y002335D01*
X001485Y002335D01*
X004915Y002207D02*
X004915Y002083D01*
X004915Y002145D02*
X005285Y002145D01*
X005285Y002083D02*
X005285Y002207D01*
X005223Y001962D02*
X004976Y001962D01*
X004915Y001900D01*
X004915Y001715D01*
X005285Y001715D01*
X005285Y001900D01*
X005223Y001962D01*
X005223Y001349D02*
X004976Y001349D01*
X004915Y001287D01*
X004915Y001102D01*
X005285Y001102D01*
X005285Y001287D01*
X005223Y001349D01*
X005285Y000980D02*
X004915Y000980D01*
X004915Y000733D02*
X005285Y000980D01*
X005285Y000733D02*
X004915Y000733D01*
X004976Y000612D02*
X004915Y000550D01*
X004915Y000427D01*
X004976Y000365D01*
X005223Y000365D01*
X005285Y000427D01*
X005285Y000550D01*
X005223Y000612D01*
X005100Y000612D01*
X005100Y000488D01*
D11*
X004184Y000444D02*
X004184Y000366D01*
X003397Y000366D01*
X003791Y000759D01*
X003987Y000956D02*
X004184Y001153D01*
X004184Y000956D01*
X004184Y001153D02*
X004184Y001744D01*
X002491Y001350D02*
X002493Y001403D01*
X002499Y001456D01*
X002509Y001508D01*
X002522Y001559D01*
X002540Y001609D01*
X002561Y001658D01*
X002586Y001705D01*
X002614Y001749D01*
X002646Y001792D01*
X002680Y001832D01*
X002718Y001870D01*
X002758Y001904D01*
X002801Y001936D01*
X002846Y001964D01*
X002892Y001989D01*
X002941Y002010D01*
X002991Y002028D01*
X003042Y002041D01*
X003094Y002051D01*
X003147Y002057D01*
X003200Y002059D01*
X003253Y002057D01*
X003306Y002051D01*
X003358Y002041D01*
X003409Y002028D01*
X003459Y002010D01*
X003508Y001989D01*
X003555Y001964D01*
X003599Y001936D01*
X003642Y001904D01*
X003682Y001870D01*
X003720Y001832D01*
X003754Y001792D01*
X003786Y001749D01*
X003814Y001704D01*
X003839Y001658D01*
X003860Y001609D01*
X003878Y001559D01*
X003891Y001508D01*
X003901Y001456D01*
X003907Y001403D01*
X003909Y001350D01*
X003907Y001297D01*
X003901Y001244D01*
X003891Y001192D01*
X003878Y001141D01*
X003860Y001091D01*
X003839Y001042D01*
X003814Y000995D01*
X003786Y000951D01*
X003754Y000908D01*
X003720Y000868D01*
X003682Y000830D01*
X003642Y000796D01*
X003599Y000764D01*
X003554Y000736D01*
X003508Y000711D01*
X003459Y000690D01*
X003409Y000672D01*
X003358Y000659D01*
X003306Y000649D01*
X003253Y000643D01*
X003200Y000641D01*
X003147Y000643D01*
X003094Y000649D01*
X003042Y000659D01*
X002991Y000672D01*
X002941Y000690D01*
X002892Y000711D01*
X002845Y000736D01*
X002801Y000764D01*
X002758Y000796D01*
X002718Y000830D01*
X002680Y000868D01*
X002646Y000908D01*
X002614Y000951D01*
X002586Y000996D01*
X002561Y001042D01*
X002540Y001091D01*
X002522Y001141D01*
X002509Y001192D01*
X002499Y001244D01*
X002493Y001297D01*
X002491Y001350D01*
X002216Y001744D02*
X002216Y000956D01*
X002216Y000444D02*
X002216Y000366D01*
X003397Y000366D01*
X004184Y002256D02*
X004184Y002334D01*
X002216Y002334D01*
X002216Y002256D01*
M02*
