G75*
%MOIN*%
%OFA0B0*%
%FSLAX24Y24*%
%IPPOS*%
%LPD*%
%AMOC8*
5,1,8,0,0,1.08239X$1,22.5*
%
%ADD10C,0.0030*%
%ADD11C,0.0060*%
D10*
X001444Y000365D02*
X001444Y000510D01*
X001492Y000558D01*
X001540Y000510D01*
X001540Y000365D01*
X001637Y000365D02*
X001637Y000558D01*
X001589Y000558D01*
X001540Y000510D01*
X001738Y000462D02*
X001738Y000413D01*
X001787Y000365D01*
X001883Y000365D01*
X001932Y000413D01*
X001932Y000510D01*
X001787Y000510D01*
X001738Y000462D01*
X001835Y000607D02*
X001932Y000510D01*
X001835Y000607D02*
X001738Y000655D01*
X002033Y000655D02*
X002033Y000365D01*
X002226Y000655D01*
X002226Y000365D01*
X002328Y000365D02*
X002521Y000365D01*
X002328Y000558D01*
X002521Y000558D01*
X002622Y000510D02*
X002719Y000510D01*
X002622Y000510D02*
X002622Y000413D01*
X002671Y000365D01*
X002767Y000365D01*
X002816Y000413D01*
X002816Y000607D01*
X002767Y000655D01*
X002671Y000655D01*
X002622Y000607D01*
X002359Y000815D02*
X002359Y001105D01*
X002214Y001105D01*
X002165Y001057D01*
X002165Y000960D01*
X002214Y000912D01*
X002359Y000912D01*
X002064Y000815D02*
X001871Y001105D01*
X001770Y001105D02*
X001770Y000863D01*
X001721Y000815D01*
X001625Y000815D01*
X001576Y000863D01*
X001576Y001105D01*
X001475Y001057D02*
X001427Y001105D01*
X001330Y001105D01*
X001281Y001057D01*
X001281Y001008D01*
X001378Y000912D01*
X001378Y000863D02*
X001378Y000815D01*
X002917Y000365D02*
X003110Y000365D01*
X003014Y000365D02*
X003014Y000655D01*
X003110Y000558D01*
X003212Y000655D02*
X003405Y000365D01*
X003505Y000365D02*
X003602Y000365D01*
X003553Y000365D02*
X003553Y000655D01*
X003602Y000655D01*
X003703Y000558D02*
X003848Y000558D01*
X003896Y000510D01*
X003896Y000413D01*
X003848Y000365D01*
X003703Y000365D01*
X003703Y000317D02*
X003703Y000558D01*
X003995Y000413D02*
X003995Y000365D01*
X004044Y000365D01*
X004044Y000413D01*
X003995Y000413D01*
X004145Y000413D02*
X004145Y000510D01*
X004193Y000558D01*
X004290Y000558D01*
X004338Y000510D01*
X004338Y000413D01*
X004290Y000365D01*
X004193Y000365D01*
X004145Y000413D01*
X004439Y000413D02*
X004439Y000510D01*
X004488Y000558D01*
X004584Y000558D01*
X004633Y000510D01*
X004633Y000413D01*
X004584Y000365D01*
X004488Y000365D01*
X004439Y000413D01*
X004734Y000365D02*
X004879Y000365D01*
X004927Y000413D01*
X004927Y000510D01*
X004879Y000558D01*
X004734Y000558D01*
X004734Y000317D01*
X004782Y000268D01*
X004831Y000268D01*
X003799Y000268D02*
X003751Y000268D01*
X003703Y000317D01*
X004845Y000884D02*
X005135Y000884D01*
X005135Y001029D01*
X005087Y001077D01*
X004990Y001077D01*
X004942Y001029D01*
X004942Y000884D01*
X004942Y000980D02*
X004845Y001077D01*
X004893Y001178D02*
X005087Y001372D01*
X004893Y001372D01*
X004845Y001323D01*
X004845Y001227D01*
X004893Y001178D01*
X005087Y001178D01*
X005135Y001227D01*
X005135Y001323D01*
X005087Y001372D01*
X004893Y001473D02*
X004845Y001473D01*
X004845Y001521D01*
X004893Y001521D01*
X004893Y001473D01*
X004669Y001545D02*
X004475Y001545D01*
X004572Y001545D02*
X004572Y001835D01*
X004669Y001738D01*
X004845Y001814D02*
X004845Y001620D01*
X005038Y001814D01*
X005087Y001814D01*
X005135Y001765D01*
X005135Y001669D01*
X005087Y001620D01*
X004374Y001593D02*
X004181Y001787D01*
X004181Y001593D01*
X004229Y001545D01*
X004326Y001545D01*
X004374Y001593D01*
X004374Y001787D01*
X004326Y001835D01*
X004229Y001835D01*
X004181Y001787D01*
X004080Y001835D02*
X004080Y001545D01*
X004031Y001690D02*
X003886Y001545D01*
X004080Y001642D02*
X003886Y001835D01*
X003801Y002065D02*
X004048Y002065D01*
X004048Y002127D01*
X003801Y002374D01*
X003801Y002435D01*
X004048Y002435D01*
X004232Y002312D02*
X004170Y002250D01*
X004170Y002188D01*
X004417Y002188D01*
X004538Y002188D02*
X004785Y002188D01*
X004785Y002127D02*
X004785Y002250D01*
X004723Y002312D01*
X004600Y002312D01*
X004538Y002250D01*
X004538Y002188D01*
X004417Y002127D02*
X004417Y002250D01*
X004355Y002312D01*
X004232Y002312D01*
X004417Y002127D02*
X004355Y002065D01*
X004232Y002065D01*
X004600Y002065D02*
X004723Y002065D01*
X004785Y002127D01*
X003680Y002127D02*
X003680Y002250D01*
X003618Y002312D01*
X003495Y002312D01*
X003433Y002250D01*
X003433Y002188D01*
X003680Y002188D01*
X003680Y002127D02*
X003618Y002065D01*
X003495Y002065D01*
X003312Y002127D02*
X003312Y002250D01*
X003250Y002312D01*
X003127Y002312D01*
X003065Y002250D01*
X003065Y002188D01*
X003312Y002188D01*
X003312Y002127D02*
X003250Y002065D01*
X003127Y002065D01*
X002943Y002065D02*
X002943Y002435D01*
X002758Y002435D01*
X002697Y002374D01*
X002697Y002250D01*
X002758Y002188D01*
X002943Y002188D01*
X002820Y002188D02*
X002697Y002065D01*
X002575Y002127D02*
X002513Y002065D01*
X002390Y002065D01*
X002328Y002127D01*
X002328Y002250D01*
X002452Y002250D01*
X002575Y002127D02*
X002575Y002374D01*
X002513Y002435D01*
X002390Y002435D01*
X002328Y002374D01*
X002207Y002435D02*
X002022Y002435D01*
X001960Y002374D01*
X001960Y002312D01*
X002022Y002250D01*
X002207Y002250D01*
X002022Y002250D02*
X001960Y002188D01*
X001960Y002127D01*
X002022Y002065D01*
X002207Y002065D01*
X002207Y002435D01*
X003935Y001235D02*
X004080Y001090D01*
X003886Y001090D01*
X003935Y000945D02*
X003935Y001235D01*
X004181Y001187D02*
X004374Y000993D01*
X004326Y000945D01*
X004229Y000945D01*
X004181Y000993D01*
X004181Y001187D01*
X004229Y001235D01*
X004326Y001235D01*
X004374Y001187D01*
X004374Y000993D01*
X004475Y000945D02*
X004669Y000945D01*
X004572Y000945D02*
X004572Y001235D01*
X004669Y001138D01*
D11*
X000950Y000350D02*
X000450Y000350D01*
X000200Y000600D01*
X000200Y001100D01*
X000450Y001350D01*
X000950Y001350D01*
X001200Y001100D01*
X001200Y000600D01*
X000950Y000350D01*
X001535Y001206D02*
X002165Y001206D01*
X002184Y001206D01*
X002203Y001210D01*
X002221Y001216D01*
X002237Y001226D01*
X002252Y001238D01*
X002264Y001252D01*
X002274Y001269D01*
X002280Y001286D01*
X002284Y001305D01*
X002283Y001305D02*
X002283Y001895D01*
X002284Y001895D02*
X002280Y001914D01*
X002274Y001931D01*
X002264Y001948D01*
X002252Y001962D01*
X002237Y001974D01*
X002221Y001984D01*
X002203Y001990D01*
X002184Y001994D01*
X002165Y001994D01*
X001535Y001994D01*
X001535Y001995D02*
X001516Y001995D01*
X001497Y001991D01*
X001479Y001985D01*
X001463Y001976D01*
X001448Y001963D01*
X001436Y001949D01*
X001426Y001932D01*
X001420Y001914D01*
X001416Y001896D01*
X001417Y001895D02*
X001417Y001305D01*
X001416Y001305D02*
X001420Y001286D01*
X001426Y001269D01*
X001436Y001252D01*
X001448Y001238D01*
X001463Y001226D01*
X001479Y001216D01*
X001497Y001210D01*
X001516Y001206D01*
X001535Y001206D01*
X001200Y001600D02*
X000950Y001350D01*
X000450Y001350D02*
X000200Y001600D01*
X000200Y002100D01*
X000450Y002350D01*
X000950Y002350D01*
X001200Y002100D01*
X001200Y001600D01*
X005200Y001600D02*
X005450Y001350D01*
X005200Y001100D01*
X005200Y000600D01*
X005450Y000350D01*
X005950Y000350D01*
X006200Y000600D01*
X006200Y001100D01*
X005950Y001350D01*
X006200Y001600D01*
X006200Y002100D01*
X005950Y002350D01*
X005450Y002350D01*
X005200Y002100D01*
X005200Y001600D01*
X005450Y001350D02*
X005950Y001350D01*
M02*
